<svg xmlns="http://www.w3.org/2000/svg" width="288" height="316" viewBox="0 0 288 316" fill="none" role="img" aria-label="Lommeboka LB logo">
  <defs>
    <linearGradient id="bgGrad" x1="18" y1="10" x2="270" y2="308" gradientUnits="userSpaceOnUse">
      <stop offset="0" stop-color="#0E1220"/>
      <stop offset="0.52" stop-color="#0A0E1A"/>
      <stop offset="1" stop-color="#070B14"/>
    </linearGradient>

    <radialGradient id="bgGlow" cx="0" cy="0" r="1" gradientUnits="userSpaceOnUse"
      gradientTransform="translate(108 138) rotate(90) scale(150 150)">
      <stop offset="0" stop-color="#1D4ED8" stop-opacity="0.18"/>
      <stop offset="0.45" stop-color="#1D4ED8" stop-opacity="0.08"/>
      <stop offset="1" stop-color="#1D4ED8" stop-opacity="0"/>
    </radialGradient>

    <linearGradient id="lbFill" x1="76" y1="84" x2="235" y2="247" gradientUnits="userSpaceOnUse">
      <stop offset="0" stop-color="#5EA6FF"/>
      <stop offset="0.38" stop-color="#3E88F8"/>
      <stop offset="1" stop-color="#4ED7F1"/>
    </linearGradient>

    <linearGradient id="lbHighlight" x1="88" y1="88" x2="203" y2="218" gradientUnits="userSpaceOnUse">
      <stop offset="0" stop-color="#FFFFFF" stop-opacity="0.30"/>
      <stop offset="0.35" stop-color="#FFFFFF" stop-opacity="0.10"/>
      <stop offset="1" stop-color="#FFFFFF" stop-opacity="0"/>
    </linearGradient>

    <filter id="softOuterGlow" x="-35%" y="-35%" width="170%" height="170%" color-interpolation-filters="sRGB">
      <feGaussianBlur in="SourceGraphic" stdDeviation="4.2" result="blur"/>
      <feColorMatrix in="blur" type="matrix" values="
        0 0 0 0 0.23
        0 0 0 0 0.51
        0 0 0 0 0.97
        0 0 0 0.22 0" result="glow"/>
      <feMerge>
        <feMergeNode in="glow"/>
        <feMergeNode in="SourceGraphic"/>
      </feMerge>
    </filter>

    <filter id="subtleShadow" x="-20%" y="-20%" width="140%" height="140%">
      <feDropShadow dx="0" dy="2" stdDeviation="2.5" flood-color="#06101D" flood-opacity="0.5"/>
    </filter>

    <clipPath id="iconClip">
      <rect x="0" y="0" width="288" height="316" rx="46" ry="46"/>
    </clipPath>
  </defs>

  <g clip-path="url(#iconClip)">
    <rect x="0" y="0" width="288" height="316" rx="46" ry="46" fill="url(#bgGrad)"/>
    <rect x="0" y="0" width="288" height="316" rx="46" ry="46" fill="url(#bgGlow)"/>
  </g>

  <g filter="url(#softOuterGlow)">
    <g filter="url(#subtleShadow)">
      <path d="M 149.0,248.5 L 148.0,248.5 L 147.0,248.5 L 146.0,248.5 L 145.0,248.5 L 144.0,248.5 L 143.0,248.5 L 142.0,248.5 L 141.0,248.5 L 140.0,248.5 L 139.0,248.5 L 138.0,248.5 L 137.0,248.5 L 136.0,248.5 L 135.0,248.5 L 134.0,248.5 L 133.0,248.5 L 132.0,248.5 L 131.0,248.5 L 130.0,248.5 L 129.0,248.5 L 128.0,248.5 L 127.0,248.5 L 126.0,248.5 L 125.0,248.5 L 124.0,248.5 L 123.0,248.5 L 122.0,248.5 L 121.0,248.5 L 120.0,248.5 L 119.0,248.5 L 118.0,248.5 L 117.0,248.5 L 116.0,248.5 L 115.0,248.5 L 114.0,248.5 L 113.0,248.5 L 112.0,248.5 L 111.0,248.5 L 110.0,248.5 L 109.0,248.5 L 108.0,248.5 L 107.0,248.5 L 106.0,248.5 L 105.0,248.5 L 104.0,248.5 L 103.0,248.5 L 102.0,248.5 L 101.0,248.5 L 100.0,248.5 L 99.0,248.5 L 98.0,248.5 L 97.0,248.5 L 96.0,248.5 L 95.0,248.5 L 94.0,248.5 L 93.0,248.5 L 92.0,248.5 L 91.5,248.0 L 91.0,247.5 L 90.0,247.5 L 89.0,247.5 L 88.0,247.5 L 87.0,247.5 L 86.0,247.5 L 85.5,247.0 L 85.0,246.5 L 84.0,246.5 L 83.5,246.0 L 83.0,245.5 L 82.0,245.5 L 81.0,245.5 L 80.5,245.0 L 80.0,244.5 L 79.0,244.5 L 78.5,244.0 L 78.0,243.5 L 77.0,243.5 L 76.5,243.0 L 76.0,242.5 L 75.5,242.0 L 75.0,241.5 L 74.5,241.0 L 74.0,240.5 L 73.5,240.0 L 73.0,239.5 L 72.5,239.0 L 72.0,238.5 L 71.5,238.0 L 71.0,237.5 L 70.5,237.0 L 70.5,236.0 L 70.0,235.5 L 69.5,235.0 L 69.0,234.5 L 68.5,234.0 L 68.5,233.0 L 68.0,232.5 L 67.5,232.0 L 67.5,231.0 L 67.0,230.5 L 66.5,230.0 L 66.5,229.0 L 66.5,228.0 L 66.0,227.5 L 65.5,227.0 L 65.5,226.0 L 65.5,225.0 L 65.5,224.0 L 65.5,223.0 L 65.0,222.5 L 64.5,222.0 L 64.5,221.0 L 64.5,220.0 L 64.5,219.0 L 64.5,218.0 L 64.5,217.0 L 64.5,216.0 L 64.5,215.0 L 64.5,214.0 L 64.5,213.0 L 64.5,212.0 L 64.5,211.0 L 64.5,210.0 L 64.5,209.0 L 64.5,208.0 L 64.5,207.0 L 64.5,206.0 L 64.5,205.0 L 64.5,204.0 L 64.5,203.0 L 64.5,202.0 L 64.5,201.0 L 64.5,200.0 L 64.5,199.0 L 64.5,198.0 L 64.5,197.0 L 64.5,196.0 L 64.5,195.0 L 64.5,194.0 L 64.5,193.0 L 64.5,192.0 L 64.5,191.0 L 64.5,190.0 L 64.5,189.0 L 64.5,188.0 L 64.5,187.0 L 64.5,186.0 L 64.5,185.0 L 64.5,184.0 L 64.5,183.0 L 64.5,182.0 L 64.5,181.0 L 64.5,180.0 L 64.5,179.0 L 64.5,178.0 L 64.5,177.0 L 64.5,176.0 L 64.5,175.0 L 64.5,174.0 L 64.5,173.0 L 64.5,172.0 L 64.5,171.0 L 64.5,170.0 L 64.5,169.0 L 64.5,168.0 L 64.5,167.0 L 64.5,166.0 L 64.5,165.0 L 64.5,164.0 L 64.5,163.0 L 64.5,162.0 L 64.5,161.0 L 64.5,160.0 L 64.5,159.0 L 64.5,158.0 L 64.5,157.0 L 64.5,156.0 L 64.5,155.0 L 64.5,154.0 L 64.5,153.0 L 64.5,152.0 L 64.5,151.0 L 64.5,150.0 L 64.5,149.0 L 64.5,148.0 L 64.5,147.0 L 64.5,146.0 L 64.5,145.0 L 64.5,144.0 L 64.5,143.0 L 64.5,142.0 L 64.5,141.0 L 64.5,140.0 L 64.5,139.0 L 64.5,138.0 L 64.5,137.0 L 64.5,136.0 L 64.5,135.0 L 64.5,134.0 L 64.5,133.0 L 64.5,132.0 L 64.5,131.0 L 64.5,130.0 L 64.5,129.0 L 64.5,128.0 L 64.5,127.0 L 64.5,126.0 L 64.5,125.0 L 64.5,124.0 L 64.5,123.0 L 64.5,122.0 L 64.5,121.0 L 64.5,120.0 L 64.5,119.0 L 64.5,118.0 L 64.5,117.0 L 64.5,116.0 L 64.5,115.0 L 64.5,114.0 L 64.5,113.0 L 64.5,112.0 L 64.5,111.0 L 64.5,110.0 L 64.5,109.0 L 64.5,108.0 L 64.5,107.0 L 64.5,106.0 L 64.5,105.0 L 64.5,104.0 L 64.5,103.0 L 64.5,102.0 L 64.5,101.0 L 64.5,100.0 L 64.5,99.0 L 64.5,98.0 L 64.5,97.0 L 64.5,96.0 L 64.5,95.0 L 64.5,94.0 L 64.5,93.0 L 64.5,92.0 L 64.5,91.0 L 64.5,90.0 L 64.5,89.0 L 64.5,88.0 L 64.5,87.0 L 64.5,86.0 L 65.0,85.5 L 65.5,85.0 L 66.0,84.5 L 67.0,84.5 L 67.5,84.0 L 68.0,83.5 L 69.0,83.5 L 70.0,83.5 L 71.0,83.5 L 72.0,83.5 L 73.0,83.5 L 74.0,83.5 L 75.0,83.5 L 76.0,83.5 L 77.0,83.5 L 78.0,83.5 L 79.0,83.5 L 80.0,83.5 L 81.0,83.5 L 82.0,83.5 L 83.0,83.5 L 84.0,83.5 L 85.0,83.5 L 86.0,83.5 L 87.0,83.5 L 87.5,84.0 L 88.0,84.5 L 88.5,85.0 L 89.0,85.5 L 89.5,86.0 L 90.0,86.5 L 90.5,87.0 L 90.5,88.0 L 90.5,89.0 L 90.5,90.0 L 90.5,91.0 L 90.0,91.5 L 89.5,92.0 L 89.5,93.0 L 89.5,94.0 L 89.5,95.0 L 89.5,96.0 L 89.5,97.0 L 89.5,98.0 L 89.5,99.0 L 89.5,100.0 L 89.5,101.0 L 89.5,102.0 L 89.5,103.0 L 89.5,104.0 L 89.5,105.0 L 89.5,106.0 L 89.5,107.0 L 89.5,108.0 L 89.5,109.0 L 89.5,110.0 L 89.5,111.0 L 89.5,112.0 L 89.5,113.0 L 89.5,114.0 L 89.5,115.0 L 89.5,116.0 L 89.5,117.0 L 89.5,118.0 L 89.5,119.0 L 89.5,120.0 L 89.5,121.0 L 89.5,122.0 L 89.5,123.0 L 89.5,124.0 L 89.5,125.0 L 89.5,126.0 L 89.5,127.0 L 89.5,128.0 L 89.5,129.0 L 89.5,130.0 L 89.5,131.0 L 89.5,132.0 L 89.5,133.0 L 89.5,134.0 L 89.5,135.0 L 89.5,136.0 L 89.5,137.0 L 89.5,138.0 L 89.5,139.0 L 89.5,140.0 L 89.5,141.0 L 89.5,142.0 L 89.5,143.0 L 89.5,144.0 L 89.5,145.0 L 89.5,146.0 L 89.5,147.0 L 89.5,148.0 L 89.5,149.0 L 89.5,150.0 L 89.5,151.0 L 89.5,152.0 L 89.5,153.0 L 89.5,154.0 L 89.5,155.0 L 89.5,156.0 L 89.5,157.0 L 89.5,158.0 L 89.5,159.0 L 89.5,160.0 L 89.5,161.0 L 89.5,162.0 L 89.5,163.0 L 89.5,164.0 L 89.5,165.0 L 89.5,166.0 L 89.5,167.0 L 89.5,168.0 L 89.5,169.0 L 89.5,170.0 L 89.5,171.0 L 89.5,172.0 L 89.5,173.0 L 89.5,174.0 L 89.5,175.0 L 89.5,176.0 L 89.5,177.0 L 89.5,178.0 L 89.5,179.0 L 89.5,180.0 L 89.5,181.0 L 89.5,182.0 L 89.5,183.0 L 89.5,184.0 L 89.5,185.0 L 89.5,186.0 L 89.5,187.0 L 89.5,188.0 L 89.5,189.0 L 89.5,190.0 L 89.5,191.0 L 89.5,192.0 L 89.5,193.0 L 89.5,194.0 L 89.5,195.0 L 89.5,196.0 L 89.5,197.0 L 89.5,198.0 L 89.5,199.0 L 89.5,200.0 L 89.5,201.0 L 89.5,202.0 L 89.5,203.0 L 89.5,204.0 L 89.5,205.0 L 89.5,206.0 L 89.5,207.0 L 89.5,208.0 L 89.5,209.0 L 89.5,210.0 L 89.5,211.0 L 89.5,212.0 L 89.5,213.0 L 89.5,214.0 L 89.5,215.0 L 89.5,216.0 L 89.5,217.0 L 89.5,218.0 L 90.0,218.5 L 90.5,219.0 L 90.5,220.0 L 91.0,220.5 L 91.5,221.0 L 92.0,221.5 L 92.5,222.0 L 93.0,222.5 L 93.5,223.0 L 94.0,223.5 L 95.0,223.5 L 96.0,223.5 L 97.0,223.5 L 98.0,223.5 L 99.0,223.5 L 100.0,223.5 L 101.0,223.5 L 102.0,223.5 L 103.0,223.5 L 104.0,223.5 L 105.0,223.5 L 106.0,223.5 L 107.0,223.5 L 108.0,223.5 L 109.0,223.5 L 110.0,223.5 L 111.0,223.5 L 112.0,223.5 L 113.0,223.5 L 114.0,223.5 L 115.0,223.5 L 116.0,223.5 L 117.0,223.5 L 118.0,223.5 L 119.0,223.5 L 120.0,223.5 L 121.0,223.5 L 122.0,223.5 L 123.0,223.5 L 124.0,223.5 L 125.0,223.5 L 126.0,223.5 L 127.0,223.5 L 128.0,223.5 L 129.0,223.5 L 130.0,223.5 L 131.0,223.5 L 132.0,223.5 L 133.0,223.5 L 134.0,223.5 L 135.0,223.5 L 136.0,223.5 L 137.0,223.5 L 138.0,223.5 L 139.0,223.5 L 140.0,223.5 L 141.0,223.5 L 142.0,223.5 L 143.0,223.5 L 144.0,223.5 L 145.0,223.5 L 146.0,223.5 L 147.0,223.5 L 148.0,223.5 L 149.0,223.5 L 149.5,224.0 L 150.0,224.5 L 150.5,225.0 L 151.0,225.5 L 151.5,226.0 L 151.5,227.0 L 151.5,228.0 L 151.5,229.0 L 151.5,230.0 L 151.0,230.5 L 150.5,231.0 L 150.5,232.0 L 151.0,232.5 L 151.5,233.0 L 151.5,234.0 L 151.5,235.0 L 151.5,236.0 L 151.5,237.0 L 151.0,237.5 L 150.5,238.0 L 150.5,239.0 L 150.5,240.0 L 150.5,241.0 L 150.5,242.0 L 150.5,243.0 L 150.5,244.0 L 150.5,245.0 L 150.5,246.0 L 150.5,247.0 L 150.0,247.5 L 149.5,248.0 L 149.0,248.5 Z" fill="url(#lbFill)"/>
      <path d="M 190.0,248.5 L 189.0,248.5 L 188.0,248.5 L 187.0,248.5 L 186.0,248.5 L 185.0,248.5 L 184.0,248.5 L 183.0,248.5 L 182.0,248.5 L 181.0,248.5 L 180.0,248.5 L 179.0,248.5 L 178.0,248.5 L 177.0,248.5 L 176.0,248.5 L 175.0,248.5 L 174.0,248.5 L 173.5,248.0 L 173.0,247.5 L 172.0,247.5 L 171.0,247.5 L 170.5,247.0 L 170.0,246.5 L 169.5,246.0 L 169.5,245.0 L 169.5,244.0 L 169.5,243.0 L 169.5,242.0 L 169.5,241.0 L 169.5,240.0 L 169.5,239.0 L 169.5,238.0 L 169.5,237.0 L 169.5,236.0 L 169.5,235.0 L 169.5,234.0 L 169.5,233.0 L 169.5,232.0 L 169.5,231.0 L 169.5,230.0 L 169.5,229.0 L 169.5,228.0 L 169.5,227.0 L 169.5,226.0 L 170.0,225.5 L 170.5,225.0 L 171.0,224.5 L 171.5,224.0 L 172.0,223.5 L 173.0,223.5 L 174.0,223.5 L 175.0,223.5 L 176.0,223.5 L 177.0,223.5 L 178.0,223.5 L 179.0,223.5 L 180.0,223.5 L 181.0,223.5 L 182.0,223.5 L 183.0,223.5 L 184.0,223.5 L 185.0,223.5 L 186.0,223.5 L 187.0,223.5 L 188.0,223.5 L 189.0,223.5 L 190.0,223.5 L 191.0,223.5 L 192.0,223.5 L 192.5,223.0 L 193.0,222.5 L 194.0,222.5 L 195.0,222.5 L 195.5,222.0 L 196.0,221.5 L 197.0,221.5 L 197.5,221.0 L 198.0,220.5 L 199.0,220.5 L 199.5,220.0 L 200.0,219.5 L 200.5,219.0 L 201.0,218.5 L 202.0,218.5 L 202.5,218.0 L 203.0,217.5 L 203.5,217.0 L 204.0,216.5 L 204.5,216.0 L 205.0,215.5 L 205.5,215.0 L 205.5,214.0 L 206.0,213.5 L 206.5,213.0 L 207.0,212.5 L 207.5,212.0 L 207.5,211.0 L 208.0,210.5 L 208.5,210.0 L 208.5,209.0 L 209.0,208.5 L 209.5,208.0 L 209.5,207.0 L 209.5,206.0 L 209.5,205.0 L 210.0,204.5 L 210.5,204.0 L 210.5,203.0 L 210.5,202.0 L 210.5,201.0 L 210.5,200.0 L 210.5,199.0 L 210.5,198.0 L 210.5,197.0 L 210.5,196.0 L 210.5,195.0 L 210.0,194.5 L 209.5,194.0 L 209.5,193.0 L 209.5,192.0 L 209.5,191.0 L 209.0,190.5 L 208.5,190.0 L 208.5,189.0 L 208.5,188.0 L 208.0,187.5 L 207.5,187.0 L 207.5,186.0 L 207.0,185.5 L 206.5,185.0 L 206.0,184.5 L 205.5,184.0 L 205.5,183.0 L 205.0,182.5 L 204.5,182.0 L 204.0,181.5 L 203.5,181.0 L 203.0,180.5 L 202.5,180.0 L 202.0,179.5 L 201.0,179.5 L 200.5,179.0 L 200.0,178.5 L 199.5,178.0 L 199.0,177.5 L 198.0,177.5 L 197.5,177.0 L 197.0,176.5 L 196.0,176.5 L 195.5,176.0 L 195.0,175.5 L 194.0,175.5 L 193.0,175.5 L 192.5,175.0 L 192.0,174.5 L 191.0,174.5 L 190.0,174.5 L 189.0,174.5 L 188.0,174.5 L 187.5,174.0 L 187.0,173.5 L 186.0,173.5 L 185.0,173.5 L 184.0,173.5 L 183.0,173.5 L 182.0,173.5 L 181.0,173.5 L 180.0,173.5 L 179.0,173.5 L 178.0,173.5 L 177.0,173.5 L 176.0,173.5 L 175.0,173.5 L 174.0,173.5 L 173.0,173.5 L 172.0,173.5 L 171.0,173.5 L 170.0,173.5 L 169.0,173.5 L 168.0,173.5 L 167.0,173.5 L 166.0,173.5 L 165.0,173.5 L 164.0,173.5 L 163.0,173.5 L 162.0,173.5 L 161.0,173.5 L 160.0,173.5 L 159.0,173.5 L 158.0,173.5 L 157.0,173.5 L 156.0,173.5 L 155.0,173.5 L 154.0,173.5 L 153.0,173.5 L 152.0,173.5 L 151.0,173.5 L 150.0,173.5 L 149.0,173.5 L 148.0,173.5 L 147.0,173.5 L 146.0,173.5 L 145.0,173.5 L 144.0,173.5 L 143.0,173.5 L 142.0,173.5 L 141.0,173.5 L 140.5,174.0 L 140.0,174.5 L 139.5,175.0 L 139.5,176.0 L 139.5,177.0 L 139.5,178.0 L 139.5,179.0 L 139.5,180.0 L 139.5,181.0 L 139.5,182.0 L 139.5,183.0 L 139.5,184.0 L 139.5,185.0 L 139.5,186.0 L 139.5,187.0 L 139.5,188.0 L 139.5,189.0 L 139.5,190.0 L 139.5,191.0 L 139.5,192.0 L 139.5,193.0 L 139.5,194.0 L 139.5,195.0 L 139.5,196.0 L 139.5,197.0 L 139.5,198.0 L 139.5,199.0 L 139.5,200.0 L 139.5,201.0 L 139.5,202.0 L 139.0,202.5 L 138.5,203.0 L 138.0,203.5 L 137.5,204.0 L 137.0,204.5 L 136.0,204.5 L 135.0,204.5 L 134.0,204.5 L 133.0,204.5 L 132.0,204.5 L 131.0,204.5 L 130.0,204.5 L 129.0,204.5 L 128.0,204.5 L 127.0,204.5 L 126.0,204.5 L 125.0,204.5 L 124.0,204.5 L 123.0,204.5 L 122.0,204.5 L 121.0,204.5 L 120.0,204.5 L 119.0,204.5 L 118.0,204.5 L 117.0,204.5 L 116.5,204.0 L 116.0,203.5 L 115.5,203.0 L 115.0,202.5 L 114.5,202.0 L 114.5,201.0 L 114.5,200.0 L 114.5,199.0 L 114.5,198.0 L 114.5,197.0 L 114.5,196.0 L 114.5,195.0 L 114.5,194.0 L 114.5,193.0 L 114.5,192.0 L 114.5,191.0 L 114.5,190.0 L 114.5,189.0 L 114.5,188.0 L 114.5,187.0 L 114.5,186.0 L 114.5,185.0 L 114.5,184.0 L 114.5,183.0 L 114.5,182.0 L 114.5,181.0 L 114.5,180.0 L 114.5,179.0 L 114.5,178.0 L 114.5,177.0 L 114.5,176.0 L 114.5,175.0 L 114.5,174.0 L 114.5,173.0 L 114.5,172.0 L 114.5,171.0 L 114.5,170.0 L 114.5,169.0 L 114.5,168.0 L 114.5,167.0 L 114.5,166.0 L 114.5,165.0 L 114.5,164.0 L 114.5,163.0 L 114.5,162.0 L 114.5,161.0 L 114.5,160.0 L 114.5,159.0 L 114.5,158.0 L 114.5,157.0 L 114.5,156.0 L 114.5,155.0 L 114.5,154.0 L 114.5,153.0 L 114.5,152.0 L 114.5,151.0 L 114.5,150.0 L 114.5,149.0 L 114.5,148.0 L 114.5,147.0 L 114.5,146.0 L 114.5,145.0 L 114.5,144.0 L 114.5,143.0 L 114.5,142.0 L 114.5,141.0 L 114.5,140.0 L 114.5,139.0 L 114.5,138.0 L 114.5,137.0 L 114.5,136.0 L 114.5,135.0 L 114.5,134.0 L 114.5,133.0 L 114.5,132.0 L 114.5,131.0 L 114.5,130.0 L 114.5,129.0 L 114.5,128.0 L 114.5,127.0 L 114.5,126.0 L 114.5,125.0 L 114.5,124.0 L 114.5,123.0 L 114.5,122.0 L 114.5,121.0 L 114.5,120.0 L 114.5,119.0 L 114.5,118.0 L 114.5,117.0 L 114.5,116.0 L 114.5,115.0 L 114.5,114.0 L 114.5,113.0 L 114.5,112.0 L 114.5,111.0 L 114.5,110.0 L 114.5,109.0 L 114.5,108.0 L 114.5,107.0 L 114.5,106.0 L 114.5,105.0 L 114.5,104.0 L 114.5,103.0 L 114.5,102.0 L 114.5,101.0 L 114.5,100.0 L 114.5,99.0 L 114.5,98.0 L 114.5,97.0 L 114.5,96.0 L 114.5,95.0 L 114.5,94.0 L 114.5,93.0 L 114.5,92.0 L 114.5,91.0 L 114.5,90.0 L 114.5,89.0 L 114.5,88.0 L 114.5,87.0 L 114.5,86.0 L 115.0,85.5 L 115.5,85.0 L 116.0,84.5 L 116.5,84.0 L 117.0,83.5 L 118.0,83.5 L 119.0,83.5 L 120.0,83.5 L 121.0,83.5 L 122.0,83.5 L 123.0,83.5 L 124.0,83.5 L 125.0,83.5 L 126.0,83.5 L 127.0,83.5 L 128.0,83.5 L 129.0,83.5 L 130.0,83.5 L 131.0,83.5 L 132.0,83.5 L 133.0,83.5 L 134.0,83.5 L 135.0,83.5 L 136.0,83.5 L 137.0,83.5 L 138.0,83.5 L 139.0,83.5 L 140.0,83.5 L 141.0,83.5 L 142.0,83.5 L 143.0,83.5 L 144.0,83.5 L 145.0,83.5 L 146.0,83.5 L 147.0,83.5 L 148.0,83.5 L 149.0,83.5 L 150.0,83.5 L 151.0,83.5 L 152.0,83.5 L 153.0,83.5 L 154.0,83.5 L 155.0,83.5 L 156.0,83.5 L 157.0,83.5 L 158.0,83.5 L 159.0,83.5 L 160.0,83.5 L 161.0,83.5 L 162.0,83.5 L 163.0,83.5 L 164.0,83.5 L 165.0,83.5 L 166.0,83.5 L 167.0,83.5 L 168.0,83.5 L 169.0,83.5 L 170.0,83.5 L 171.0,83.5 L 172.0,83.5 L 173.0,83.5 L 174.0,83.5 L 175.0,83.5 L 176.0,83.5 L 177.0,83.5 L 178.0,83.5 L 179.0,83.5 L 180.0,83.5 L 181.0,83.5 L 182.0,83.5 L 183.0,83.5 L 184.0,83.5 L 185.0,83.5 L 186.0,83.5 L 187.0,83.5 L 187.5,84.0 L 188.0,84.5 L 189.0,84.5 L 190.0,84.5 L 191.0,84.5 L 192.0,84.5 L 193.0,84.5 L 193.5,85.0 L 194.0,85.5 L 195.0,85.5 L 196.0,85.5 L 197.0,85.5 L 197.5,86.0 L 198.0,86.5 L 199.0,86.5 L 199.5,87.0 L 200.0,87.5 L 201.0,87.5 L 201.5,88.0 L 202.0,88.5 L 203.0,88.5 L 204.0,88.5 L 204.5,89.0 L 205.0,89.5 L 206.0,89.5 L 206.5,90.0 L 207.0,90.5 L 207.5,91.0 L 208.0,91.5 L 208.5,92.0 L 209.0,92.5 L 210.0,92.5 L 210.5,93.0 L 211.0,93.5 L 211.5,94.0 L 212.0,94.5 L 212.5,95.0 L 213.0,95.5 L 213.5,96.0 L 214.0,96.5 L 214.5,97.0 L 215.0,97.5 L 215.5,98.0 L 216.0,98.5 L 216.5,99.0 L 217.0,99.5 L 217.5,100.0 L 218.0,100.5 L 218.5,101.0 L 219.0,101.5 L 219.5,102.0 L 219.5,103.0 L 220.0,103.5 L 220.5,104.0 L 221.0,104.5 L 221.5,105.0 L 221.5,106.0 L 222.0,106.5 L 222.5,107.0 L 223.0,107.5 L 223.5,108.0 L 223.5,109.0 L 223.5,110.0 L 224.0,110.5 L 224.5,111.0 L 224.5,112.0 L 224.5,113.0 L 225.0,113.5 L 225.5,114.0 L 225.5,115.0 L 225.5,116.0 L 225.5,117.0 L 226.0,117.5 L 226.5,118.0 L 226.5,119.0 L 226.5,120.0 L 226.5,121.0 L 226.5,122.0 L 226.5,123.0 L 226.5,124.0 L 226.5,125.0 L 226.5,126.0 L 226.5,127.0 L 226.5,128.0 L 226.5,129.0 L 226.5,130.0 L 226.5,131.0 L 226.5,132.0 L 226.5,133.0 L 226.5,134.0 L 226.5,135.0 L 226.5,136.0 L 226.0,136.5 L 225.5,137.0 L 225.5,138.0 L 225.5,139.0 L 225.5,140.0 L 225.0,140.5 L 224.5,141.0 L 224.5,142.0 L 224.0,142.5 L 223.5,143.0 L 223.5,144.0 L 223.5,145.0 L 223.0,145.5 L 222.5,146.0 L 222.5,147.0 L 222.0,147.5 L 221.5,148.0 L 221.0,148.5 L 220.5,149.0 L 220.5,150.0 L 220.0,150.5 L 219.5,151.0 L 219.0,151.5 L 218.5,152.0 L 218.5,153.0 L 218.0,153.5 L 217.5,154.0 L 217.0,154.5 L 216.5,155.0 L 216.0,155.5 L 215.5,156.0 L 215.0,156.5 L 214.5,157.0 L 214.0,157.5 L 213.5,158.0 L 213.5,159.0 L 214.0,159.5 L 214.5,160.0 L 215.0,160.5 L 216.0,160.5 L 216.5,161.0 L 217.0,161.5 L 217.5,162.0 L 218.0,162.5 L 218.5,163.0 L 219.0,163.5 L 220.0,163.5 L 220.5,164.0 L 221.0,164.5 L 221.5,165.0 L 222.0,165.5 L 222.5,166.0 L 223.0,166.5 L 223.5,167.0 L 224.0,167.5 L 224.5,168.0 L 225.0,168.5 L 225.5,169.0 L 226.0,169.5 L 226.5,170.0 L 226.5,171.0 L 227.0,171.5 L 227.5,172.0 L 228.0,172.5 L 228.5,173.0 L 229.0,173.5 L 229.5,174.0 L 229.5,175.0 L 230.0,175.5 L 230.5,176.0 L 230.5,177.0 L 231.0,177.5 L 231.5,178.0 L 232.0,178.5 L 232.5,179.0 L 232.5,180.0 L 232.5,181.0 L 233.0,181.5 L 233.5,182.0 L 233.5,183.0 L 233.5,184.0 L 234.0,184.5 L 234.5,185.0 L 234.5,186.0 L 234.5,187.0 L 234.5,188.0 L 235.0,188.5 L 235.5,189.0 L 235.5,190.0 L 235.5,191.0 L 235.5,192.0 L 235.5,193.0 L 235.5,194.0 L 235.5,195.0 L 236.0,195.5 L 236.5,196.0 L 236.5,197.0 L 236.5,198.0 L 236.5,199.0 L 236.5,200.0 L 236.5,201.0 L 236.5,202.0 L 236.5,203.0 L 236.0,203.5 L 235.5,204.0 L 235.5,205.0 L 235.5,206.0 L 235.5,207.0 L 235.5,208.0 L 235.5,209.0 L 235.0,209.5 L 234.5,210.0 L 234.5,211.0 L 234.5,212.0 L 234.5,213.0 L 234.0,213.5 L 233.5,214.0 L 233.5,215.0 L 233.5,216.0 L 233.0,216.5 L 232.5,217.0 L 232.5,218.0 L 232.5,219.0 L 232.0,219.5 L 231.5,220.0 L 231.5,221.0 L 231.0,221.5 L 230.5,222.0 L 230.5,223.0 L 230.0,223.5 L 229.5,224.0 L 229.5,225.0 L 229.0,225.5 L 228.5,226.0 L 228.0,226.5 L 227.5,227.0 L 227.0,227.5 L 226.5,228.0 L 226.5,229.0 L 226.0,229.5 L 225.5,230.0 L 225.0,230.5 L 224.5,231.0 L 224.0,231.5 L 223.5,232.0 L 223.0,232.5 L 222.5,233.0 L 222.0,233.5 L 221.5,234.0 L 221.0,234.5 L 220.5,235.0 L 220.0,235.5 L 219.5,236.0 L 219.0,236.5 L 218.5,237.0 L 218.0,237.5 L 217.5,238.0 L 217.0,238.5 L 216.0,238.5 L 215.5,239.0 L 215.0,239.5 L 214.5,240.0 L 214.0,240.5 L 213.0,240.5 L 212.5,241.0 L 212.0,241.5 L 211.0,241.5 L 210.5,242.0 L 210.0,242.5 L 209.0,242.5 L 208.5,243.0 L 208.0,243.5 L 207.0,243.5 L 206.5,244.0 L 206.0,244.5 L 205.0,244.5 L 204.0,244.5 L 203.5,245.0 L 203.0,245.5 L 202.0,245.5 L 201.0,245.5 L 200.5,246.0 L 200.0,246.5 L 199.0,246.5 L 198.0,246.5 L 197.5,247.0 L 197.0,247.5 L 196.0,247.5 L 195.0,247.5 L 194.0,247.5 L 193.0,247.5 L 192.0,247.5 L 191.0,247.5 L 190.5,248.0 L 190.0,248.5 Z M 185.5,148.0 L 186.0,147.5 L 187.0,147.5 L 188.0,147.5 L 188.5,147.0 L 189.0,146.5 L 190.0,146.5 L 190.5,146.0 L 191.0,145.5 L 192.0,145.5 L 192.5,145.0 L 193.0,144.5 L 193.5,144.0 L 194.0,143.5 L 195.0,143.5 L 195.5,143.0 L 196.0,142.5 L 196.5,142.0 L 197.0,141.5 L 197.5,141.0 L 197.5,140.0 L 198.0,139.5 L 198.5,139.0 L 199.0,138.5 L 199.5,138.0 L 199.5,137.0 L 199.5,136.0 L 200.0,135.5 L 200.5,135.0 L 200.5,134.0 L 200.5,133.0 L 200.5,132.0 L 200.5,131.0 L 200.5,130.0 L 200.5,129.0 L 200.5,128.0 L 200.5,127.0 L 200.5,126.0 L 200.5,125.0 L 200.5,124.0 L 200.5,123.0 L 200.5,122.0 L 200.0,121.5 L 199.5,121.0 L 199.5,120.0 L 199.5,119.0 L 199.0,118.5 L 198.5,118.0 L 198.0,117.5 L 197.5,117.0 L 197.5,116.0 L 197.0,115.5 L 196.5,115.0 L 196.0,114.5 L 195.5,114.0 L 195.0,113.5 L 194.5,113.0 L 194.0,112.5 L 193.0,112.5 L 192.5,112.0 L 192.0,111.5 L 191.0,111.5 L 190.5,111.0 L 190.0,110.5 L 189.0,110.5 L 188.5,110.0 L 188.0,109.5 L 187.0,109.5 L 186.0,109.5 L 185.0,109.5 L 184.0,109.5 L 183.0,109.5 L 182.0,109.5 L 181.0,109.5 L 180.0,109.5 L 179.0,109.5 L 178.0,109.5 L 177.0,109.5 L 176.0,109.5 L 175.0,109.5 L 174.0,109.5 L 173.0,109.5 L 172.0,109.5 L 171.0,109.5 L 170.0,109.5 L 169.0,109.5 L 168.0,109.5 L 167.0,109.5 L 166.0,109.5 L 165.0,109.5 L 164.0,109.5 L 163.0,109.5 L 162.0,109.5 L 161.0,109.5 L 160.0,109.5 L 159.0,109.5 L 158.0,109.5 L 157.0,109.5 L 156.0,109.5 L 155.0,109.5 L 154.0,109.5 L 153.0,109.5 L 152.0,109.5 L 151.0,109.5 L 150.0,109.5 L 149.0,109.5 L 148.0,109.5 L 147.0,109.5 L 146.0,109.5 L 145.0,109.5 L 144.0,109.5 L 143.0,109.5 L 142.0,109.5 L 141.0,109.5 L 140.5,110.0 L 140.0,110.5 L 139.5,111.0 L 139.5,112.0 L 139.5,113.0 L 139.5,114.0 L 139.5,115.0 L 139.5,116.0 L 139.5,117.0 L 139.5,118.0 L 139.5,119.0 L 139.5,120.0 L 139.5,121.0 L 139.5,122.0 L 139.5,123.0 L 139.5,124.0 L 139.5,125.0 L 139.5,126.0 L 139.5,127.0 L 139.5,128.0 L 139.5,129.0 L 139.5,130.0 L 139.5,131.0 L 139.5,132.0 L 139.5,133.0 L 139.5,134.0 L 139.5,135.0 L 139.5,136.0 L 139.5,137.0 L 139.5,138.0 L 139.5,139.0 L 139.5,140.0 L 139.5,141.0 L 139.5,142.0 L 139.5,143.0 L 139.5,144.0 L 139.5,145.0 L 139.5,146.0 L 139.5,147.0 L 140.0,147.5 L 140.5,148.0 L 141.0,148.5 L 142.0,148.5 L 143.0,148.5 L 144.0,148.5 L 145.0,148.5 L 146.0,148.5 L 147.0,148.5 L 148.0,148.5 L 149.0,148.5 L 150.0,148.5 L 151.0,148.5 L 152.0,148.5 L 153.0,148.5 L 154.0,148.5 L 155.0,148.5 L 156.0,148.5 L 157.0,148.5 L 158.0,148.5 L 159.0,148.5 L 160.0,148.5 L 161.0,148.5 L 162.0,148.5 L 163.0,148.5 L 164.0,148.5 L 165.0,148.5 L 166.0,148.5 L 167.0,148.5 L 168.0,148.5 L 169.0,148.5 L 170.0,148.5 L 171.0,148.5 L 172.0,148.5 L 173.0,148.5 L 174.0,148.5 L 175.0,148.5 L 176.0,148.5 L 177.0,148.5 L 178.0,148.5 L 179.0,148.5 L 180.0,148.5 L 181.0,148.5 L 182.0,148.5 L 183.0,148.5 L 184.0,148.5 L 185.0,148.5 L 185.5,148.0 Z" fill="url(#lbFill)" fill-rule="evenodd"/>
    </g>

    <path d="M 149.0,248.5 L 148.0,248.5 L 147.0,248.5 L 146.0,248.5 L 145.0,248.5 L 144.0,248.5 L 143.0,248.5 L 142.0,248.5 L 141.0,248.5 L 140.0,248.5 L 139.0,248.5 L 138.0,248.5 L 137.0,248.5 L 136.0,248.5 L 135.0,248.5 L 134.0,248.5 L 133.0,248.5 L 132.0,248.5 L 131.0,248.5 L 130.0,248.5 L 129.0,248.5 L 128.0,248.5 L 127.0,248.5 L 126.0,248.5 L 125.0,248.5 L 124.0,248.5 L 123.0,248.5 L 122.0,248.5 L 121.0,248.5 L 120.0,248.5 L 119.0,248.5 L 118.0,248.5 L 117.0,248.5 L 116.0,248.5 L 115.0,248.5 L 114.0,248.5 L 113.0,248.5 L 112.0,248.5 L 111.0,248.5 L 110.0,248.5 L 109.0,248.5 L 108.0,248.5 L 107.0,248.5 L 106.0,248.5 L 105.0,248.5 L 104.0,248.5 L 103.0,248.5 L 102.0,248.5 L 101.0,248.5 L 100.0,248.5 L 99.0,248.5 L 98.0,248.5 L 97.0,248.5 L 96.0,248.5 L 95.0,248.5 L 94.0,248.5 L 93.0,248.5 L 92.0,248.5 L 91.5,248.0 L 91.0,247.5 L 90.0,247.5 L 89.0,247.5 L 88.0,247.5 L 87.0,247.5 L 86.0,247.5 L 85.5,247.0 L 85.0,246.5 L 84.0,246.5 L 83.5,246.0 L 83.0,245.5 L 82.0,245.5 L 81.0,245.5 L 80.5,245.0 L 80.0,244.5 L 79.0,244.5 L 78.5,244.0 L 78.0,243.5 L 77.0,243.5 L 76.5,243.0 L 76.0,242.5 L 75.5,242.0 L 75.0,241.5 L 74.5,241.0 L 74.0,240.5 L 73.5,240.0 L 73.0,239.5 L 72.5,239.0 L 72.0,238.5 L 71.5,238.0 L 71.0,237.5 L 70.5,237.0 L 70.5,236.0 L 70.0,235.5 L 69.5,235.0 L 69.0,234.5 L 68.5,234.0 L 68.5,233.0 L 68.0,232.5 L 67.5,232.0 L 67.5,231.0 L 67.0,230.5 L 66.5,230.0 L 66.5,229.0 L 66.5,228.0 L 66.0,227.5 L 65.5,227.0 L 65.5,226.0 L 65.5,225.0 L 65.5,224.0 L 65.5,223.0 L 65.0,222.5 L 64.5,222.0 L 64.5,221.0 L 64.5,220.0 L 64.5,219.0 L 64.5,218.0 L 64.5,217.0 L 64.5,216.0 L 64.5,215.0 L 64.5,214.0 L 64.5,213.0 L 64.5,212.0 L 64.5,211.0 L 64.5,210.0 L 64.5,209.0 L 64.5,208.0 L 64.5,207.0 L 64.5,206.0 L 64.5,205.0 L 64.5,204.0 L 64.5,203.0 L 64.5,202.0 L 64.5,201.0 L 64.5,200.0 L 64.5,199.0 L 64.5,198.0 L 64.5,197.0 L 64.5,196.0 L 64.5,195.0 L 64.5,194.0 L 64.5,193.0 L 64.5,192.0 L 64.5,191.0 L 64.5,190.0 L 64.5,189.0 L 64.5,188.0 L 64.5,187.0 L 64.5,186.0 L 64.5,185.0 L 64.5,184.0 L 64.5,183.0 L 64.5,182.0 L 64.5,181.0 L 64.5,180.0 L 64.5,179.0 L 64.5,178.0 L 64.5,177.0 L 64.5,176.0 L 64.5,175.0 L 64.5,174.0 L 64.5,173.0 L 64.5,172.0 L 64.5,171.0 L 64.5,170.0 L 64.5,169.0 L 64.5,168.0 L 64.5,167.0 L 64.5,166.0 L 64.5,165.0 L 64.5,164.0 L 64.5,163.0 L 64.5,162.0 L 64.5,161.0 L 64.5,160.0 L 64.5,159.0 L 64.5,158.0 L 64.5,157.0 L 64.5,156.0 L 64.5,155.0 L 64.5,154.0 L 64.5,153.0 L 64.5,152.0 L 64.5,151.0 L 64.5,150.0 L 64.5,149.0 L 64.5,148.0 L 64.5,147.0 L 64.5,146.0 L 64.5,145.0 L 64.5,144.0 L 64.5,143.0 L 64.5,142.0 L 64.5,141.0 L 64.5,140.0 L 64.5,139.0 L 64.5,138.0 L 64.5,137.0 L 64.5,136.0 L 64.5,135.0 L 64.5,134.0 L 64.5,133.0 L 64.5,132.0 L 64.5,131.0 L 64.5,130.0 L 64.5,129.0 L 64.5,128.0 L 64.5,127.0 L 64.5,126.0 L 64.5,125.0 L 64.5,124.0 L 64.5,123.0 L 64.5,122.0 L 64.5,121.0 L 64.5,120.0 L 64.5,119.0 L 64.5,118.0 L 64.5,117.0 L 64.5,116.0 L 64.5,115.0 L 64.5,114.0 L 64.5,113.0 L 64.5,112.0 L 64.5,111.0 L 64.5,110.0 L 64.5,109.0 L 64.5,108.0 L 64.5,107.0 L 64.5,106.0 L 64.5,105.0 L 64.5,104.0 L 64.5,103.0 L 64.5,102.0 L 64.5,101.0 L 64.5,100.0 L 64.5,99.0 L 64.5,98.0 L 64.5,97.0 L 64.5,96.0 L 64.5,95.0 L 64.5,94.0 L 64.5,93.0 L 64.5,92.0 L 64.5,91.0 L 64.5,90.0 L 64.5,89.0 L 64.5,88.0 L 64.5,87.0 L 64.5,86.0 L 65.0,85.5 L 65.5,85.0 L 66.0,84.5 L 67.0,84.5 L 67.5,84.0 L 68.0,83.5 L 69.0,83.5 L 70.0,83.5 L 71.0,83.5 L 72.0,83.5 L 73.0,83.5 L 74.0,83.5 L 75.0,83.5 L 76.0,83.5 L 77.0,83.5 L 78.0,83.5 L 79.0,83.5 L 80.0,83.5 L 81.0,83.5 L 82.0,83.5 L 83.0,83.5 L 84.0,83.5 L 85.0,83.5 L 86.0,83.5 L 87.0,83.5 L 87.5,84.0 L 88.0,84.5 L 88.5,85.0 L 89.0,85.5 L 89.5,86.0 L 90.0,86.5 L 90.5,87.0 L 90.5,88.0 L 90.5,89.0 L 90.5,90.0 L 90.5,91.0 L 90.0,91.5 L 89.5,92.0 L 89.5,93.0 L 89.5,94.0 L 89.5,95.0 L 89.5,96.0 L 89.5,97.0 L 89.5,98.0 L 89.5,99.0 L 89.5,100.0 L 89.5,101.0 L 89.5,102.0 L 89.5,103.0 L 89.5,104.0 L 89.5,105.0 L 89.5,106.0 L 89.5,107.0 L 89.5,108.0 L 89.5,109.0 L 89.5,110.0 L 89.5,111.0 L 89.5,112.0 L 89.5,113.0 L 89.5,114.0 L 89.5,115.0 L 89.5,116.0 L 89.5,117.0 L 89.5,118.0 L 89.5,119.0 L 89.5,120.0 L 89.5,121.0 L 89.5,122.0 L 89.5,123.0 L 89.5,124.0 L 89.5,125.0 L 89.5,126.0 L 89.5,127.0 L 89.5,128.0 L 89.5,129.0 L 89.5,130.0 L 89.5,131.0 L 89.5,132.0 L 89.5,133.0 L 89.5,134.0 L 89.5,135.0 L 89.5,136.0 L 89.5,137.0 L 89.5,138.0 L 89.5,139.0 L 89.5,140.0 L 89.5,141.0 L 89.5,142.0 L 89.5,143.0 L 89.5,144.0 L 89.5,145.0 L 89.5,146.0 L 89.5,147.0 L 89.5,148.0 L 89.5,149.0 L 89.5,150.0 L 89.5,151.0 L 89.5,152.0 L 89.5,153.0 L 89.5,154.0 L 89.5,155.0 L 89.5,156.0 L 89.5,157.0 L 89.5,158.0 L 89.5,159.0 L 89.5,160.0 L 89.5,161.0 L 89.5,162.0 L 89.5,163.0 L 89.5,164.0 L 89.5,165.0 L 89.5,166.0 L 89.5,167.0 L 89.5,168.0 L 89.5,169.0 L 89.5,170.0 L 89.5,171.0 L 89.5,172.0 L 89.5,173.0 L 89.5,174.0 L 89.5,175.0 L 89.5,176.0 L 89.5,177.0 L 89.5,178.0 L 89.5,179.0 L 89.5,180.0 L 89.5,181.0 L 89.5,182.0 L 89.5,183.0 L 89.5,184.0 L 89.5,185.0 L 89.5,186.0 L 89.5,187.0 L 89.5,188.0 L 89.5,189.0 L 89.5,190.0 L 89.5,191.0 L 89.5,192.0 L 89.5,193.0 L 89.5,194.0 L 89.5,195.0 L 89.5,196.0 L 89.5,197.0 L 89.5,198.0 L 89.5,199.0 L 89.5,200.0 L 89.5,201.0 L 89.5,202.0 L 89.5,203.0 L 89.5,204.0 L 89.5,205.0 L 89.5,206.0 L 89.5,207.0 L 89.5,208.0 L 89.5,209.0 L 89.5,210.0 L 89.5,211.0 L 89.5,212.0 L 89.5,213.0 L 89.5,214.0 L 89.5,215.0 L 89.5,216.0 L 89.5,217.0 L 89.5,218.0 L 90.0,218.5 L 90.5,219.0 L 90.5,220.0 L 91.0,220.5 L 91.5,221.0 L 92.0,221.5 L 92.5,222.0 L 93.0,222.5 L 93.5,223.0 L 94.0,223.5 L 95.0,223.5 L 96.0,223.5 L 97.0,223.5 L 98.0,223.5 L 99.0,223.5 L 100.0,223.5 L 101.0,223.5 L 102.0,223.5 L 103.0,223.5 L 104.0,223.5 L 105.0,223.5 L 106.0,223.5 L 107.0,223.5 L 108.0,223.5 L 109.0,223.5 L 110.0,223.5 L 111.0,223.5 L 112.0,223.5 L 113.0,223.5 L 114.0,223.5 L 115.0,223.5 L 116.0,223.5 L 117.0,223.5 L 118.0,223.5 L 119.0,223.5 L 120.0,223.5 L 121.0,223.5 L 122.0,223.5 L 123.0,223.5 L 124.0,223.5 L 125.0,223.5 L 126.0,223.5 L 127.0,223.5 L 128.0,223.5 L 129.0,223.5 L 130.0,223.5 L 131.0,223.5 L 132.0,223.5 L 133.0,223.5 L 134.0,223.5 L 135.0,223.5 L 136.0,223.5 L 137.0,223.5 L 138.0,223.5 L 139.0,223.5 L 140.0,223.5 L 141.0,223.5 L 142.0,223.5 L 143.0,223.5 L 144.0,223.5 L 145.0,223.5 L 146.0,223.5 L 147.0,223.5 L 148.0,223.5 L 149.0,223.5 L 149.5,224.0 L 150.0,224.5 L 150.5,225.0 L 151.0,225.5 L 151.5,226.0 L 151.5,227.0 L 151.5,228.0 L 151.5,229.0 L 151.5,230.0 L 151.0,230.5 L 150.5,231.0 L 150.5,232.0 L 151.0,232.5 L 151.5,233.0 L 151.5,234.0 L 151.5,235.0 L 151.5,236.0 L 151.5,237.0 L 151.0,237.5 L 150.5,238.0 L 150.5,239.0 L 150.5,240.0 L 150.5,241.0 L 150.5,242.0 L 150.5,243.0 L 150.5,244.0 L 150.5,245.0 L 150.5,246.0 L 150.5,247.0 L 150.0,247.5 L 149.5,248.0 L 149.0,248.5 Z" fill="url(#lbHighlight)" opacity="0.45"/>
    <path d="M 190.0,248.5 L 189.0,248.5 L 188.0,248.5 L 187.0,248.5 L 186.0,248.5 L 185.0,248.5 L 184.0,248.5 L 183.0,248.5 L 182.0,248.5 L 181.0,248.5 L 180.0,248.5 L 179.0,248.5 L 178.0,248.5 L 177.0,248.5 L 176.0,248.5 L 175.0,248.5 L 174.0,248.5 L 173.5,248.0 L 173.0,247.5 L 172.0,247.5 L 171.0,247.5 L 170.5,247.0 L 170.0,246.5 L 169.5,246.0 L 169.5,245.0 L 169.5,244.0 L 169.5,243.0 L 169.5,242.0 L 169.5,241.0 L 169.5,240.0 L 169.5,239.0 L 169.5,238.0 L 169.5,237.0 L 169.5,236.0 L 169.5,235.0 L 169.5,234.0 L 169.5,233.0 L 169.5,232.0 L 169.5,231.0 L 169.5,230.0 L 169.5,229.0 L 169.5,228.0 L 169.5,227.0 L 169.5,226.0 L 170.0,225.5 L 170.5,225.0 L 171.0,224.5 L 171.5,224.0 L 172.0,223.5 L 173.0,223.5 L 174.0,223.5 L 175.0,223.5 L 176.0,223.5 L 177.0,223.5 L 178.0,223.5 L 179.0,223.5 L 180.0,223.5 L 181.0,223.5 L 182.0,223.5 L 183.0,223.5 L 184.0,223.5 L 185.0,223.5 L 186.0,223.5 L 187.0,223.5 L 188.0,223.5 L 189.0,223.5 L 190.0,223.5 L 191.0,223.5 L 192.0,223.5 L 192.5,223.0 L 193.0,222.5 L 194.0,222.5 L 195.0,222.5 L 195.5,222.0 L 196.0,221.5 L 197.0,221.5 L 197.5,221.0 L 198.0,220.5 L 199.0,220.5 L 199.5,220.0 L 200.0,219.5 L 200.5,219.0 L 201.0,218.5 L 202.0,218.5 L 202.5,218.0 L 203.0,217.5 L 203.5,217.0 L 204.0,216.5 L 204.5,216.0 L 205.0,215.5 L 205.5,215.0 L 205.5,214.0 L 206.0,213.5 L 206.5,213.0 L 207.0,212.5 L 207.5,212.0 L 207.5,211.0 L 208.0,210.5 L 208.5,210.0 L 208.5,209.0 L 209.0,208.5 L 209.5,208.0 L 209.5,207.0 L 209.5,206.0 L 209.5,205.0 L 210.0,204.5 L 210.5,204.0 L 210.5,203.0 L 210.5,202.0 L 210.5,201.0 L 210.5,200.0 L 210.5,199.0 L 210.5,198.0 L 210.5,197.0 L 210.5,196.0 L 210.5,195.0 L 210.0,194.5 L 209.5,194.0 L 209.5,193.0 L 209.5,192.0 L 209.5,191.0 L 209.0,190.5 L 208.5,190.0 L 208.5,189.0 L 208.5,188.0 L 208.0,187.5 L 207.5,187.0 L 207.5,186.0 L 207.0,185.5 L 206.5,185.0 L 206.0,184.5 L 205.5,184.0 L 205.5,183.0 L 205.0,182.5 L 204.5,182.0 L 204.0,181.5 L 203.5,181.0 L 203.0,180.5 L 202.5,180.0 L 202.0,179.5 L 201.0,179.5 L 200.5,179.0 L 200.0,178.5 L 199.5,178.0 L 199.0,177.5 L 198.0,177.5 L 197.5,177.0 L 197.0,176.5 L 196.0,176.5 L 195.5,176.0 L 195.0,175.5 L 194.0,175.5 L 193.0,175.5 L 192.5,175.0 L 192.0,174.5 L 191.0,174.5 L 190.0,174.5 L 189.0,174.5 L 188.0,174.5 L 187.5,174.0 L 187.0,173.5 L 186.0,173.5 L 185.0,173.5 L 184.0,173.5 L 183.0,173.5 L 182.0,173.5 L 181.0,173.5 L 180.0,173.5 L 179.0,173.5 L 178.0,173.5 L 177.0,173.5 L 176.0,173.5 L 175.0,173.5 L 174.0,173.5 L 173.0,173.5 L 172.0,173.5 L 171.0,173.5 L 170.0,173.5 L 169.0,173.5 L 168.0,173.5 L 167.0,173.5 L 166.0,173.5 L 165.0,173.5 L 164.0,173.5 L 163.0,173.5 L 162.0,173.5 L 161.0,173.5 L 160.0,173.5 L 159.0,173.5 L 158.0,173.5 L 157.0,173.5 L 156.0,173.5 L 155.0,173.5 L 154.0,173.5 L 153.0,173.5 L 152.0,173.5 L 151.0,173.5 L 150.0,173.5 L 149.0,173.5 L 148.0,173.5 L 147.0,173.5 L 146.0,173.5 L 145.0,173.5 L 144.0,173.5 L 143.0,173.5 L 142.0,173.5 L 141.0,173.5 L 140.5,174.0 L 140.0,174.5 L 139.5,175.0 L 139.5,176.0 L 139.5,177.0 L 139.5,178.0 L 139.5,179.0 L 139.5,180.0 L 139.5,181.0 L 139.5,182.0 L 139.5,183.0 L 139.5,184.0 L 139.5,185.0 L 139.5,186.0 L 139.5,187.0 L 139.5,188.0 L 139.5,189.0 L 139.5,190.0 L 139.5,191.0 L 139.5,192.0 L 139.5,193.0 L 139.5,194.0 L 139.5,195.0 L 139.5,196.0 L 139.5,197.0 L 139.5,198.0 L 139.5,199.0 L 139.5,200.0 L 139.5,201.0 L 139.5,202.0 L 139.0,202.5 L 138.5,203.0 L 138.0,203.5 L 137.5,204.0 L 137.0,204.5 L 136.0,204.5 L 135.0,204.5 L 134.0,204.5 L 133.0,204.5 L 132.0,204.5 L 131.0,204.5 L 130.0,204.5 L 129.0,204.5 L 128.0,204.5 L 127.0,204.5 L 126.0,204.5 L 125.0,204.5 L 124.0,204.5 L 123.0,204.5 L 122.0,204.5 L 121.0,204.5 L 120.0,204.5 L 119.0,204.5 L 118.0,204.5 L 117.0,204.5 L 116.5,204.0 L 116.0,203.5 L 115.5,203.0 L 115.0,202.5 L 114.5,202.0 L 114.5,201.0 L 114.5,200.0 L 114.5,199.0 L 114.5,198.0 L 114.5,197.0 L 114.5,196.0 L 114.5,195.0 L 114.5,194.0 L 114.5,193.0 L 114.5,192.0 L 114.5,191.0 L 114.5,190.0 L 114.5,189.0 L 114.5,188.0 L 114.5,187.0 L 114.5,186.0 L 114.5,185.0 L 114.5,184.0 L 114.5,183.0 L 114.5,182.0 L 114.5,181.0 L 114.5,180.0 L 114.5,179.0 L 114.5,178.0 L 114.5,177.0 L 114.5,176.0 L 114.5,175.0 L 114.5,174.0 L 114.5,173.0 L 114.5,172.0 L 114.5,171.0 L 114.5,170.0 L 114.5,169.0 L 114.5,168.0 L 114.5,167.0 L 114.5,166.0 L 114.5,165.0 L 114.5,164.0 L 114.5,163.0 L 114.5,162.0 L 114.5,161.0 L 114.5,160.0 L 114.5,159.0 L 114.5,158.0 L 114.5,157.0 L 114.5,156.0 L 114.5,155.0 L 114.5,154.0 L 114.5,153.0 L 114.5,152.0 L 114.5,151.0 L 114.5,150.0 L 114.5,149.0 L 114.5,148.0 L 114.5,147.0 L 114.5,146.0 L 114.5,145.0 L 114.5,144.0 L 114.5,143.0 L 114.5,142.0 L 114.5,141.0 L 114.5,140.0 L 114.5,139.0 L 114.5,138.0 L 114.5,137.0 L 114.5,136.0 L 114.5,135.0 L 114.5,134.0 L 114.5,133.0 L 114.5,132.0 L 114.5,131.0 L 114.5,130.0 L 114.5,129.0 L 114.5,128.0 L 114.5,127.0 L 114.5,126.0 L 114.5,125.0 L 114.5,124.0 L 114.5,123.0 L 114.5,122.0 L 114.5,121.0 L 114.5,120.0 L 114.5,119.0 L 114.5,118.0 L 114.5,117.0 L 114.5,116.0 L 114.5,115.0 L 114.5,114.0 L 114.5,113.0 L 114.5,112.0 L 114.5,111.0 L 114.5,110.0 L 114.5,109.0 L 114.5,108.0 L 114.5,107.0 L 114.5,106.0 L 114.5,105.0 L 114.5,104.0 L 114.5,103.0 L 114.5,102.0 L 114.5,101.0 L 114.5,100.0 L 114.5,99.0 L 114.5,98.0 L 114.5,97.0 L 114.5,96.0 L 114.5,95.0 L 114.5,94.0 L 114.5,93.0 L 114.5,92.0 L 114.5,91.0 L 114.5,90.0 L 114.5,89.0 L 114.5,88.0 L 114.5,87.0 L 114.5,86.0 L 115.0,85.5 L 115.5,85.0 L 116.0,84.5 L 116.5,84.0 L 117.0,83.5 L 118.0,83.5 L 119.0,83.5 L 120.0,83.5 L 121.0,83.5 L 122.0,83.5 L 123.0,83.5 L 124.0,83.5 L 125.0,83.5 L 126.0,83.5 L 127.0,83.5 L 128.0,83.5 L 129.0,83.5 L 130.0,83.5 L 131.0,83.5 L 132.0,83.5 L 133.0,83.5 L 134.0,83.5 L 135.0,83.5 L 136.0,83.5 L 137.0,83.5 L 138.0,83.5 L 139.0,83.5 L 140.0,83.5 L 141.0,83.5 L 142.0,83.5 L 143.0,83.5 L 144.0,83.5 L 145.0,83.5 L 146.0,83.5 L 147.0,83.5 L 148.0,83.5 L 149.0,83.5 L 150.0,83.5 L 151.0,83.5 L 152.0,83.5 L 153.0,83.5 L 154.0,83.5 L 155.0,83.5 L 156.0,83.5 L 157.0,83.5 L 158.0,83.5 L 159.0,83.5 L 160.0,83.5 L 161.0,83.5 L 162.0,83.5 L 163.0,83.5 L 164.0,83.5 L 165.0,83.5 L 166.0,83.5 L 167.0,83.5 L 168.0,83.5 L 169.0,83.5 L 170.0,83.5 L 171.0,83.5 L 172.0,83.5 L 173.0,83.5 L 174.0,83.5 L 175.0,83.5 L 176.0,83.5 L 177.0,83.5 L 178.0,83.5 L 179.0,83.5 L 180.0,83.5 L 181.0,83.5 L 182.0,83.5 L 183.0,83.5 L 184.0,83.5 L 185.0,83.5 L 186.0,83.5 L 187.0,83.5 L 187.5,84.0 L 188.0,84.5 L 189.0,84.5 L 190.0,84.5 L 191.0,84.5 L 192.0,84.5 L 193.0,84.5 L 193.5,85.0 L 194.0,85.5 L 195.0,85.5 L 196.0,85.5 L 197.0,85.5 L 197.5,86.0 L 198.0,86.5 L 199.0,86.5 L 199.5,87.0 L 200.0,87.5 L 201.0,87.5 L 201.5,88.0 L 202.0,88.5 L 203.0,88.5 L 204.0,88.5 L 204.5,89.0 L 205.0,89.5 L 206.0,89.5 L 206.5,90.0 L 207.0,90.5 L 207.5,91.0 L 208.0,91.5 L 208.5,92.0 L 209.0,92.5 L 210.0,92.5 L 210.5,93.0 L 211.0,93.5 L 211.5,94.0 L 212.0,94.5 L 212.5,95.0 L 213.0,95.5 L 213.5,96.0 L 214.0,96.5 L 214.5,97.0 L 215.0,97.5 L 215.5,98.0 L 216.0,98.5 L 216.5,99.0 L 217.0,99.5 L 217.5,100.0 L 218.0,100.5 L 218.5,101.0 L 219.0,101.5 L 219.5,102.0 L 219.5,103.0 L 220.0,103.5 L 220.5,104.0 L 221.0,104.5 L 221.5,105.0 L 221.5,106.0 L 222.0,106.5 L 222.5,107.0 L 223.0,107.5 L 223.5,108.0 L 223.5,109.0 L 223.5,110.0 L 224.0,110.5 L 224.5,111.0 L 224.5,112.0 L 224.5,113.0 L 225.0,113.5 L 225.5,114.0 L 225.5,115.0 L 225.5,116.0 L 225.5,117.0 L 226.0,117.5 L 226.5,118.0 L 226.5,119.0 L 226.5,120.0 L 226.5,121.0 L 226.5,122.0 L 226.5,123.0 L 226.5,124.0 L 226.5,125.0 L 226.5,126.0 L 226.5,127.0 L 226.5,128.0 L 226.5,129.0 L 226.5,130.0 L 226.5,131.0 L 226.5,132.0 L 226.5,133.0 L 226.5,134.0 L 226.5,135.0 L 226.5,136.0 L 226.0,136.5 L 225.5,137.0 L 225.5,138.0 L 225.5,139.0 L 225.5,140.0 L 225.0,140.5 L 224.5,141.0 L 224.5,142.0 L 224.0,142.5 L 223.5,143.0 L 223.5,144.0 L 223.5,145.0 L 223.0,145.5 L 222.5,146.0 L 222.5,147.0 L 222.0,147.5 L 221.5,148.0 L 221.0,148.5 L 220.5,149.0 L 220.5,150.0 L 220.0,150.5 L 219.5,151.0 L 219.0,151.5 L 218.5,152.0 L 218.5,153.0 L 218.0,153.5 L 217.5,154.0 L 217.0,154.5 L 216.5,155.0 L 216.0,155.5 L 215.5,156.0 L 215.0,156.5 L 214.5,157.0 L 214.0,157.5 L 213.5,158.0 L 213.5,159.0 L 214.0,159.5 L 214.5,160.0 L 215.0,160.5 L 216.0,160.5 L 216.5,161.0 L 217.0,161.5 L 217.5,162.0 L 218.0,162.5 L 218.5,163.0 L 219.0,163.5 L 220.0,163.5 L 220.5,164.0 L 221.0,164.5 L 221.5,165.0 L 222.0,165.5 L 222.5,166.0 L 223.0,166.5 L 223.5,167.0 L 224.0,167.5 L 224.5,168.0 L 225.0,168.5 L 225.5,169.0 L 226.0,169.5 L 226.5,170.0 L 226.5,171.0 L 227.0,171.5 L 227.5,172.0 L 228.0,172.5 L 228.5,173.0 L 229.0,173.5 L 229.5,174.0 L 229.5,175.0 L 230.0,175.5 L 230.5,176.0 L 230.5,177.0 L 231.0,177.5 L 231.5,178.0 L 232.0,178.5 L 232.5,179.0 L 232.5,180.0 L 232.5,181.0 L 233.0,181.5 L 233.5,182.0 L 233.5,183.0 L 233.5,184.0 L 234.0,184.5 L 234.5,185.0 L 234.5,186.0 L 234.5,187.0 L 234.5,188.0 L 235.0,188.5 L 235.5,189.0 L 235.5,190.0 L 235.5,191.0 L 235.5,192.0 L 235.5,193.0 L 235.5,194.0 L 235.5,195.0 L 236.0,195.5 L 236.5,196.0 L 236.5,197.0 L 236.5,198.0 L 236.5,199.0 L 236.5,200.0 L 236.5,201.0 L 236.5,202.0 L 236.5,203.0 L 236.0,203.5 L 235.5,204.0 L 235.5,205.0 L 235.5,206.0 L 235.5,207.0 L 235.5,208.0 L 235.5,209.0 L 235.0,209.5 L 234.5,210.0 L 234.5,211.0 L 234.5,212.0 L 234.5,213.0 L 234.0,213.5 L 233.5,214.0 L 233.5,215.0 L 233.5,216.0 L 233.0,216.5 L 232.5,217.0 L 232.5,218.0 L 232.5,219.0 L 232.0,219.5 L 231.5,220.0 L 231.5,221.0 L 231.0,221.5 L 230.5,222.0 L 230.5,223.0 L 230.0,223.5 L 229.5,224.0 L 229.5,225.0 L 229.0,225.5 L 228.5,226.0 L 228.0,226.5 L 227.5,227.0 L 227.0,227.5 L 226.5,228.0 L 226.5,229.0 L 226.0,229.5 L 225.5,230.0 L 225.0,230.5 L 224.5,231.0 L 224.0,231.5 L 223.5,232.0 L 223.0,232.5 L 222.5,233.0 L 222.0,233.5 L 221.5,234.0 L 221.0,234.5 L 220.5,235.0 L 220.0,235.5 L 219.5,236.0 L 219.0,236.5 L 218.5,237.0 L 218.0,237.5 L 217.5,238.0 L 217.0,238.5 L 216.0,238.5 L 215.5,239.0 L 215.0,239.5 L 214.5,240.0 L 214.0,240.5 L 213.0,240.5 L 212.5,241.0 L 212.0,241.5 L 211.0,241.5 L 210.5,242.0 L 210.0,242.5 L 209.0,242.5 L 208.5,243.0 L 208.0,243.5 L 207.0,243.5 L 206.5,244.0 L 206.0,244.5 L 205.0,244.5 L 204.0,244.5 L 203.5,245.0 L 203.0,245.5 L 202.0,245.5 L 201.0,245.5 L 200.5,246.0 L 200.0,246.5 L 199.0,246.5 L 198.0,246.5 L 197.5,247.0 L 197.0,247.5 L 196.0,247.5 L 195.0,247.5 L 194.0,247.5 L 193.0,247.5 L 192.0,247.5 L 191.0,247.5 L 190.5,248.0 L 190.0,248.5 Z M 185.5,148.0 L 186.0,147.5 L 187.0,147.5 L 188.0,147.5 L 188.5,147.0 L 189.0,146.5 L 190.0,146.5 L 190.5,146.0 L 191.0,145.5 L 192.0,145.5 L 192.5,145.0 L 193.0,144.5 L 193.5,144.0 L 194.0,143.5 L 195.0,143.5 L 195.5,143.0 L 196.0,142.5 L 196.5,142.0 L 197.0,141.5 L 197.5,141.0 L 197.5,140.0 L 198.0,139.5 L 198.5,139.0 L 199.0,138.5 L 199.5,138.0 L 199.5,137.0 L 199.5,136.0 L 200.0,135.5 L 200.5,135.0 L 200.5,134.0 L 200.5,133.0 L 200.5,132.0 L 200.5,131.0 L 200.5,130.0 L 200.5,129.0 L 200.5,128.0 L 200.5,127.0 L 200.5,126.0 L 200.5,125.0 L 200.5,124.0 L 200.5,123.0 L 200.5,122.0 L 200.0,121.5 L 199.5,121.0 L 199.5,120.0 L 199.5,119.0 L 199.0,118.5 L 198.5,118.0 L 198.0,117.5 L 197.5,117.0 L 197.5,116.0 L 197.0,115.5 L 196.5,115.0 L 196.0,114.5 L 195.5,114.0 L 195.0,113.5 L 194.5,113.0 L 194.0,112.5 L 193.0,112.5 L 192.5,112.0 L 192.0,111.5 L 191.0,111.5 L 190.5,111.0 L 190.0,110.5 L 189.0,110.5 L 188.5,110.0 L 188.0,109.5 L 187.0,109.5 L 186.0,109.5 L 185.0,109.5 L 184.0,109.5 L 183.0,109.5 L 182.0,109.5 L 181.0,109.5 L 180.0,109.5 L 179.0,109.5 L 178.0,109.5 L 177.0,109.5 L 176.0,109.5 L 175.0,109.5 L 174.0,109.5 L 173.0,109.5 L 172.0,109.5 L 171.0,109.5 L 170.0,109.5 L 169.0,109.5 L 168.0,109.5 L 167.0,109.5 L 166.0,109.5 L 165.0,109.5 L 164.0,109.5 L 163.0,109.5 L 162.0,109.5 L 161.0,109.5 L 160.0,109.5 L 159.0,109.5 L 158.0,109.5 L 157.0,109.5 L 156.0,109.5 L 155.0,109.5 L 154.0,109.5 L 153.0,109.5 L 152.0,109.5 L 151.0,109.5 L 150.0,109.5 L 149.0,109.5 L 148.0,109.5 L 147.0,109.5 L 146.0,109.5 L 145.0,109.5 L 144.0,109.5 L 143.0,109.5 L 142.0,109.5 L 141.0,109.5 L 140.5,110.0 L 140.0,110.5 L 139.5,111.0 L 139.5,112.0 L 139.5,113.0 L 139.5,114.0 L 139.5,115.0 L 139.5,116.0 L 139.5,117.0 L 139.5,118.0 L 139.5,119.0 L 139.5,120.0 L 139.5,121.0 L 139.5,122.0 L 139.5,123.0 L 139.5,124.0 L 139.5,125.0 L 139.5,126.0 L 139.5,127.0 L 139.5,128.0 L 139.5,129.0 L 139.5,130.0 L 139.5,131.0 L 139.5,132.0 L 139.5,133.0 L 139.5,134.0 L 139.5,135.0 L 139.5,136.0 L 139.5,137.0 L 139.5,138.0 L 139.5,139.0 L 139.5,140.0 L 139.5,141.0 L 139.5,142.0 L 139.5,143.0 L 139.5,144.0 L 139.5,145.0 L 139.5,146.0 L 139.5,147.0 L 140.0,147.5 L 140.5,148.0 L 141.0,148.5 L 142.0,148.5 L 143.0,148.5 L 144.0,148.5 L 145.0,148.5 L 146.0,148.5 L 147.0,148.5 L 148.0,148.5 L 149.0,148.5 L 150.0,148.5 L 151.0,148.5 L 152.0,148.5 L 153.0,148.5 L 154.0,148.5 L 155.0,148.5 L 156.0,148.5 L 157.0,148.5 L 158.0,148.5 L 159.0,148.5 L 160.0,148.5 L 161.0,148.5 L 162.0,148.5 L 163.0,148.5 L 164.0,148.5 L 165.0,148.5 L 166.0,148.5 L 167.0,148.5 L 168.0,148.5 L 169.0,148.5 L 170.0,148.5 L 171.0,148.5 L 172.0,148.5 L 173.0,148.5 L 174.0,148.5 L 175.0,148.5 L 176.0,148.5 L 177.0,148.5 L 178.0,148.5 L 179.0,148.5 L 180.0,148.5 L 181.0,148.5 L 182.0,148.5 L 183.0,148.5 L 184.0,148.5 L 185.0,148.5 L 185.5,148.0 Z" fill="url(#lbHighlight)" fill-rule="evenodd" opacity="0.42"/>
  </g>
</svg>
